<svg width="19" height="23" viewBox="0 0 19 23" fill="none" xmlns="http://www.w3.org/2000/svg">
<path d="M3.56895 7.04016C3.45971 8.20548 3.38304 10.2678 4.07111 11.1456C4.07111 11.1456 3.7472 8.88013 6.65091 6.03776C7.82005 4.89353 8.0903 3.33722 7.68206 2.16999C7.45014 1.50875 7.02657 0.962507 6.65857 0.581096C6.44391 0.35685 6.60874 -0.0130614 6.92115 0.00035507C8.81096 0.0846871 11.8737 0.609845 13.1751 3.8758C13.7463 5.30944 13.7885 6.791 13.5163 8.29748C13.3438 9.25963 12.7305 11.3986 14.1296 11.6612C15.1282 11.849 15.6112 11.0555 15.8278 10.4844C15.9178 10.2467 16.2303 10.1873 16.3989 10.377C18.0856 12.2956 18.2293 14.5553 17.8805 16.5007C17.2058 20.2611 13.3975 22.9981 9.61403 22.9981C4.8876 22.9981 1.12524 20.2937 0.149673 15.3986C-0.243237 13.4226 -0.0439067 9.51262 3.00355 6.75267C3.22971 6.54567 3.59962 6.72967 3.56895 7.04016Z" fill="url(#paint0_radial_16_175)"/>
<path d="M11.3409 14.0723C9.59869 11.8298 10.3788 9.27113 10.8062 8.25148C10.8637 8.11731 10.7103 7.99082 10.5896 8.07323C9.84019 8.58306 8.30497 9.78287 7.59006 11.4714C6.62216 13.7541 6.69116 14.8715 7.26423 16.2362C7.60923 17.0584 7.20865 17.2328 7.0074 17.2635C6.8119 17.2942 6.63174 17.1638 6.48799 17.0278C6.07592 16.6348 5.77884 16.1231 5.63701 15.5711C5.60634 15.4523 5.45109 15.4197 5.38018 15.5174C4.84352 16.2592 4.56561 17.4494 4.55219 18.2908C4.51002 20.8917 6.65857 23 9.25753 23C12.5331 23 14.9193 19.3776 13.0371 16.3493C12.4909 15.4676 11.9772 14.8907 11.3409 14.0723Z" fill="url(#paint1_radial_16_175)"/>
<defs>
<radialGradient id="paint0_radial_16_175" cx="0" cy="0" r="1" gradientUnits="userSpaceOnUse" gradientTransform="translate(8.67795 23.0596) rotate(-179.751) scale(13.5291 22.2004)">
<stop offset="0.3144" stop-color="#FF9800"/>
<stop offset="0.6616" stop-color="#FF6D00"/>
<stop offset="0.9715" stop-color="#F44336"/>
</radialGradient>
<radialGradient id="paint1_radial_16_175" cx="0" cy="0" r="1" gradientUnits="userSpaceOnUse" gradientTransform="translate(9.43766 9.59483) rotate(90.5787) scale(14.1556 10.6531)">
<stop offset="0.2141" stop-color="#FFF176"/>
<stop offset="0.3275" stop-color="#FFF27D"/>
<stop offset="0.4868" stop-color="#FFF48F"/>
<stop offset="0.6722" stop-color="#FFF7AD"/>
<stop offset="0.7931" stop-color="#FFF9C4"/>
<stop offset="0.8221" stop-color="#FFF8BD" stop-opacity="0.804"/>
<stop offset="0.8627" stop-color="#FFF6AB" stop-opacity="0.529"/>
<stop offset="0.9101" stop-color="#FFF38D" stop-opacity="0.2088"/>
<stop offset="0.9409" stop-color="#FFF176" stop-opacity="0"/>
</radialGradient>
</defs>
</svg>
