<svg width="715" height="174" viewBox="0 0 715 174" fill="none" xmlns="http://www.w3.org/2000/svg">
<path d="M207.445 129H191.098V65.5078H170.162V51.9023H228.381V65.5078H207.445V129ZM230.543 70.043H248.156L259.283 103.213C259.635 104.268 259.934 105.34 260.18 106.43C260.426 107.52 260.637 108.645 260.812 109.805C260.988 110.965 261.129 112.178 261.234 113.443H261.551C261.762 111.545 262.043 109.77 262.395 108.117C262.781 106.465 263.256 104.83 263.818 103.213L274.734 70.043H291.979L267.035 136.541C265.523 140.619 263.555 144.012 261.129 146.719C258.703 149.461 255.908 151.518 252.744 152.889C249.615 154.26 246.17 154.945 242.408 154.945C240.58 154.945 238.998 154.84 237.662 154.629C236.326 154.453 235.184 154.26 234.234 154.049V141.287C234.973 141.463 235.904 141.621 237.029 141.762C238.154 141.902 239.332 141.973 240.562 141.973C242.812 141.973 244.746 141.498 246.363 140.549C247.98 139.6 249.334 138.316 250.424 136.699C251.514 135.117 252.375 133.377 253.008 131.479L253.957 128.578L230.543 70.043ZM333.27 68.9355C339.914 68.9355 345.275 71.5195 349.354 76.6875C353.467 81.8555 355.523 89.4316 355.523 99.416C355.523 106.096 354.557 111.721 352.623 116.291C350.689 120.826 348.018 124.254 344.607 126.574C341.197 128.895 337.277 130.055 332.848 130.055C330 130.055 327.557 129.703 325.518 129C323.479 128.262 321.738 127.33 320.297 126.205C318.855 125.045 317.607 123.814 316.553 122.514H315.709C315.99 123.92 316.201 125.361 316.342 126.838C316.482 128.314 316.553 129.756 316.553 131.162V154.945H300.469V70.043H313.547L315.814 77.6895H316.553C317.607 76.1074 318.891 74.6484 320.402 73.3125C321.914 71.9766 323.725 70.9219 325.834 70.1484C327.979 69.3398 330.457 68.9355 333.27 68.9355ZM328.102 81.8027C325.289 81.8027 323.057 82.3828 321.404 83.543C319.752 84.7031 318.539 86.4434 317.766 88.7637C317.027 91.084 316.623 94.0195 316.553 97.5703V99.3105C316.553 103.107 316.904 106.324 317.607 108.961C318.346 111.598 319.559 113.602 321.246 114.973C322.969 116.344 325.324 117.029 328.312 117.029C330.773 117.029 332.795 116.344 334.377 114.973C335.959 113.602 337.137 111.598 337.91 108.961C338.719 106.289 339.123 103.037 339.123 99.2051C339.123 93.4395 338.227 89.0977 336.434 86.1797C334.641 83.2617 331.863 81.8027 328.102 81.8027ZM384.369 70.043V93.3516C384.369 94.5469 384.316 96.0586 384.211 97.8867C384.141 99.6797 384.035 101.508 383.895 103.371C383.754 105.234 383.613 106.904 383.473 108.381C383.332 109.857 383.227 110.859 383.156 111.387L410.367 70.043H429.721V129H414.164V105.48C414.164 103.547 414.234 101.42 414.375 99.0996C414.516 96.7441 414.674 94.5293 414.85 92.4551C415.025 90.3809 415.148 88.8164 415.219 87.7617L388.113 129H368.812V70.043H384.369ZM470.59 130.055C464.754 130.055 459.779 129 455.666 126.891C451.553 124.746 448.424 121.441 446.279 116.977C444.135 112.512 443.062 106.799 443.062 99.8379C443.062 92.6309 444.275 86.7598 446.701 82.2246C449.162 77.6543 452.555 74.2969 456.879 72.1523C461.238 70.0078 466.283 68.9355 472.014 68.9355C476.092 68.9355 479.607 69.3398 482.561 70.1484C485.549 70.9219 488.15 71.8535 490.365 72.9434L485.619 85.3887C483.088 84.3691 480.732 83.543 478.553 82.9102C476.373 82.2422 474.193 81.9082 472.014 81.9082C469.201 81.9082 466.863 82.5762 465 83.9121C463.137 85.2129 461.748 87.1816 460.834 89.8184C459.92 92.4551 459.463 95.7598 459.463 99.7324C459.463 103.635 459.955 106.869 460.939 109.436C461.924 112.002 463.348 113.918 465.211 115.184C467.074 116.414 469.342 117.029 472.014 117.029C475.354 117.029 478.324 116.59 480.926 115.711C483.527 114.797 486.059 113.531 488.52 111.914V125.678C486.059 127.225 483.475 128.332 480.768 129C478.096 129.703 474.703 130.055 470.59 130.055ZM551.01 82.1191H531.709V129H515.625V82.1191H496.271V70.043H551.01V82.1191ZM559.764 121.459C559.764 118.154 560.66 115.834 562.453 114.498C564.281 113.162 566.479 112.494 569.045 112.494C571.541 112.494 573.686 113.162 575.479 114.498C577.307 115.834 578.221 118.154 578.221 121.459C578.221 124.623 577.307 126.908 575.479 128.314C573.686 129.721 571.541 130.424 569.045 130.424C566.479 130.424 564.281 129.721 562.453 128.314C560.66 126.908 559.764 124.623 559.764 121.459ZM625.629 68.9355C632.273 68.9355 637.635 71.5195 641.713 76.6875C645.826 81.8555 647.883 89.4316 647.883 99.416C647.883 106.096 646.916 111.721 644.982 116.291C643.049 120.826 640.377 124.254 636.967 126.574C633.557 128.895 629.637 130.055 625.207 130.055C622.359 130.055 619.916 129.703 617.877 129C615.838 128.262 614.098 127.33 612.656 126.205C611.215 125.045 609.967 123.814 608.912 122.514H608.068C608.35 123.92 608.561 125.361 608.701 126.838C608.842 128.314 608.912 129.756 608.912 131.162V154.945H592.828V70.043H605.906L608.174 77.6895H608.912C609.967 76.1074 611.25 74.6484 612.762 73.3125C614.273 71.9766 616.084 70.9219 618.193 70.1484C620.338 69.3398 622.816 68.9355 625.629 68.9355ZM620.461 81.8027C617.648 81.8027 615.416 82.3828 613.764 83.543C612.111 84.7031 610.898 86.4434 610.125 88.7637C609.387 91.084 608.982 94.0195 608.912 97.5703V99.3105C608.912 103.107 609.264 106.324 609.967 108.961C610.705 111.598 611.918 113.602 613.605 114.973C615.328 116.344 617.684 117.029 620.672 117.029C623.133 117.029 625.154 116.344 626.736 114.973C628.318 113.602 629.496 111.598 630.27 108.961C631.078 106.289 631.482 103.037 631.482 99.2051C631.482 93.4395 630.586 89.0977 628.793 86.1797C627 83.2617 624.223 81.8027 620.461 81.8027ZM652.734 70.043H670.348L681.475 103.213C681.826 104.268 682.125 105.34 682.371 106.43C682.617 107.52 682.828 108.645 683.004 109.805C683.18 110.965 683.32 112.178 683.426 113.443H683.742C683.953 111.545 684.234 109.77 684.586 108.117C684.973 106.465 685.447 104.83 686.01 103.213L696.926 70.043H714.17L689.227 136.541C687.715 140.619 685.746 144.012 683.32 146.719C680.895 149.461 678.1 151.518 674.936 152.889C671.807 154.26 668.361 154.945 664.6 154.945C662.771 154.945 661.189 154.84 659.854 154.629C658.518 154.453 657.375 154.26 656.426 154.049V141.287C657.164 141.463 658.096 141.621 659.221 141.762C660.346 141.902 661.523 141.973 662.754 141.973C665.004 141.973 666.938 141.498 668.555 140.549C670.172 139.6 671.525 138.316 672.615 136.699C673.705 135.117 674.566 133.377 675.199 131.479L676.148 128.578L652.734 70.043Z" fill="#111111"/>
<path d="M58.7789 146.25H55.727L52.9883 159.977V160.125H56.0121L58.7789 146.25Z" fill="#A7A5AC"/>
<path d="M64.4639 146.25H61.412L64.1788 160.125H67.2321L64.4639 146.25Z" fill="#A7A5AC"/>
<path d="M70.5761 147C71.608 147 72.5924 146.575 73.2992 145.822C90.9219 127.035 119.944 91.3436 119.944 60.0001C119.944 26.8626 93.1487 0 60.0955 0C27.0422 0 0.247314 26.8626 0.247314 60.0001C0.247314 91.3432 29.269 127.035 46.8914 145.822C47.5985 146.575 48.5826 147 49.6144 147H70.5761V147Z" fill="#FFE682"/>
<path d="M23.1961 117H96.9948C99.7199 113.137 102.358 109.118 104.822 105H15.369C17.8331 109.118 20.4711 113.137 23.1961 117V117Z" fill="#FFC850"/>
<path d="M0.247314 60.0001C0.247314 62.9669 0.510026 65.9732 0.995789 69.0002H119.195C119.681 65.9732 119.943 62.9673 119.943 60.0001C119.943 52.6007 118.543 45.5445 116.1 39.0001H4.0907C1.64731 45.5445 0.247314 52.6003 0.247314 60.0001V60.0001Z" fill="#FFC850"/>
<path d="M66.0802 174H54.1107C52.4582 174 51.1182 172.657 51.1182 171V162C51.1182 160.343 52.4582 159 54.1107 159H66.0802C67.7327 159 69.0727 160.343 69.0727 162V171C69.0727 172.657 67.7327 174 66.0802 174V174Z" fill="#FF9164"/>
<path d="M69.7694 147C83.7555 128.559 107.974 92.0117 107.974 60.0001C107.974 26.8626 86.5382 0 60.0955 0C33.6528 0 12.2172 26.8626 12.2172 60.0001C12.2172 92.0117 36.4355 128.559 50.4216 147H69.7694V147Z" fill="#96E178"/>
<path d="M91.2721 114H28.9189C31.1938 118.183 33.5613 122.194 35.9348 126H84.2558C86.6297 122.194 88.9972 118.183 91.2721 114Z" fill="#8CCD73"/>
<path d="M103.142 87C106.096 77.9697 107.974 68.8156 107.974 60.0001C107.974 58.9873 107.893 58.0004 107.853 56.9999H12.3378C12.2982 58.0004 12.2172 58.987 12.2172 60.0001C12.2172 68.8156 14.0948 77.9697 17.0487 87H103.142Z" fill="#8CCD73"/>
<path d="M66.7463 147C76.3616 128.559 93.0117 92.0117 93.0117 60.0001C93.0117 26.8626 78.2748 0 60.0955 0C41.9161 0 27.1792 26.8626 27.1792 60.0001C27.1792 92.0117 43.8294 128.559 53.4446 147H66.7463V147Z" fill="#FFC850"/>
<path d="M84.6779 105H35.5131C36.8701 109.122 38.3179 113.134 39.8182 117H80.3728C81.8735 113.133 83.3206 109.122 84.6779 105Z" fill="#FFAA50"/>
<path d="M27.1792 60.0001C27.1792 62.9649 27.3643 65.9756 27.6311 69.0002H92.5599C92.8267 65.9759 93.0117 62.9649 93.0117 60.0001C93.0117 52.6007 92.2416 45.5445 90.8978 39.0001H29.2928C27.9494 45.5445 27.1792 52.6003 27.1792 60.0001V60.0001Z" fill="#FFAA50"/>
<path d="M62.5141 147C66.0107 128.559 72.065 92.0117 72.065 60.0001C72.065 26.8626 66.706 0 60.0955 0C53.485 0 48.126 26.8626 48.126 60.0001C48.126 92.0117 54.1802 128.559 57.6768 147H62.5141V147Z" fill="#FF6464"/>
<path d="M48.126 60.0001C48.126 65.8934 48.3341 71.9409 48.6904 78.0003H71.5002C71.8572 71.9409 72.0646 65.8934 72.0646 60.0001C72.0646 55.8901 71.9812 51.8779 71.8239 48.0002H48.3653C48.2094 51.8779 48.126 55.8901 48.126 60.0001V60.0001Z" fill="#D2555A"/>
<path d="M53.5975 123H66.5934C67.1717 119.173 67.7402 115.159 68.2836 111H51.907C52.4507 115.159 53.0192 119.173 53.5975 123V123Z" fill="#D2555A"/>
</svg>
