<svg width="573" height="174" viewBox="0 0 573 174" fill="none" xmlns="http://www.w3.org/2000/svg">
<path d="M197.219 110H185.109V62.9688H169.602V52.8906H212.727V62.9688H197.219V110ZM214.328 66.3281H227.375L235.617 90.8984C235.878 91.6797 236.099 92.474 236.281 93.2812C236.464 94.0885 236.62 94.9219 236.75 95.7812C236.88 96.6406 236.984 97.5391 237.062 98.4766H237.297C237.453 97.0703 237.661 95.7552 237.922 94.5312C238.208 93.3073 238.56 92.0964 238.977 90.8984L247.062 66.3281H259.836L241.359 115.586C240.24 118.607 238.781 121.12 236.984 123.125C235.188 125.156 233.117 126.68 230.773 127.695C228.456 128.711 225.904 129.219 223.117 129.219C221.763 129.219 220.591 129.141 219.602 128.984C218.612 128.854 217.766 128.711 217.062 128.555V119.102C217.609 119.232 218.299 119.349 219.133 119.453C219.966 119.557 220.839 119.609 221.75 119.609C223.417 119.609 224.849 119.258 226.047 118.555C227.245 117.852 228.247 116.901 229.055 115.703C229.862 114.531 230.5 113.242 230.969 111.836L231.672 109.688L214.328 66.3281ZM290.422 65.5078C295.344 65.5078 299.315 67.4219 302.336 71.25C305.383 75.0781 306.906 80.6901 306.906 88.0859C306.906 93.0339 306.19 97.2005 304.758 100.586C303.326 103.945 301.346 106.484 298.82 108.203C296.294 109.922 293.391 110.781 290.109 110.781C288 110.781 286.19 110.521 284.68 110C283.169 109.453 281.88 108.763 280.812 107.93C279.745 107.07 278.82 106.159 278.039 105.195H277.414C277.622 106.237 277.779 107.305 277.883 108.398C277.987 109.492 278.039 110.56 278.039 111.602V129.219H266.125V66.3281H275.812L277.492 71.9922H278.039C278.82 70.8203 279.771 69.7396 280.891 68.75C282.01 67.7604 283.352 66.9792 284.914 66.4062C286.503 65.8073 288.339 65.5078 290.422 65.5078ZM286.594 75.0391C284.51 75.0391 282.857 75.4688 281.633 76.3281C280.409 77.1875 279.51 78.4766 278.938 80.1953C278.391 81.9141 278.091 84.0885 278.039 86.7188V88.0078C278.039 90.8203 278.299 93.2031 278.82 95.1562C279.367 97.1094 280.266 98.5938 281.516 99.6094C282.792 100.625 284.536 101.133 286.75 101.133C288.573 101.133 290.07 100.625 291.242 99.6094C292.414 98.5938 293.286 97.1094 293.859 95.1562C294.458 93.1771 294.758 90.7682 294.758 87.9297C294.758 83.6589 294.094 80.4427 292.766 78.2812C291.438 76.1198 289.38 75.0391 286.594 75.0391ZM328.273 66.3281V83.5938C328.273 84.4792 328.234 85.599 328.156 86.9531C328.104 88.2812 328.026 89.6354 327.922 91.0156C327.818 92.3958 327.714 93.6328 327.609 94.7266C327.505 95.8203 327.427 96.5625 327.375 96.9531L347.531 66.3281H361.867V110H350.344V92.5781C350.344 91.1458 350.396 89.5703 350.5 87.8516C350.604 86.1068 350.721 84.4661 350.852 82.9297C350.982 81.3932 351.073 80.2344 351.125 79.4531L331.047 110H316.75V66.3281H328.273ZM392.141 110.781C387.818 110.781 384.133 110 381.086 108.438C378.039 106.849 375.721 104.401 374.133 101.094C372.544 97.7865 371.75 93.5547 371.75 88.3984C371.75 83.0599 372.648 78.7109 374.445 75.3516C376.268 71.9661 378.781 69.4792 381.984 67.8906C385.214 66.3021 388.951 65.5078 393.195 65.5078C396.216 65.5078 398.82 65.8073 401.008 66.4062C403.221 66.9792 405.148 67.6693 406.789 68.4766L403.273 77.6953C401.398 76.9401 399.654 76.3281 398.039 75.8594C396.424 75.3646 394.81 75.1172 393.195 75.1172C391.112 75.1172 389.38 75.612 388 76.6016C386.62 77.5651 385.591 79.0234 384.914 80.9766C384.237 82.9297 383.898 85.3776 383.898 88.3203C383.898 91.2109 384.263 93.6068 384.992 95.5078C385.721 97.4089 386.776 98.8281 388.156 99.7656C389.536 100.677 391.216 101.133 393.195 101.133C395.669 101.133 397.87 100.807 399.797 100.156C401.724 99.4792 403.599 98.5417 405.422 97.3438V107.539C403.599 108.685 401.685 109.505 399.68 110C397.701 110.521 395.188 110.781 392.141 110.781ZM451.711 75.2734H437.414V110H425.5V75.2734H411.164V66.3281H451.711V75.2734ZM458.195 104.414C458.195 101.966 458.859 100.247 460.188 99.2578C461.542 98.2682 463.169 97.7734 465.07 97.7734C466.919 97.7734 468.508 98.2682 469.836 99.2578C471.19 100.247 471.867 101.966 471.867 104.414C471.867 106.758 471.19 108.451 469.836 109.492C468.508 110.534 466.919 111.055 465.07 111.055C463.169 111.055 461.542 110.534 460.188 109.492C458.859 108.451 458.195 106.758 458.195 104.414ZM506.984 65.5078C511.906 65.5078 515.878 67.4219 518.898 71.25C521.945 75.0781 523.469 80.6901 523.469 88.0859C523.469 93.0339 522.753 97.2005 521.32 100.586C519.888 103.945 517.909 106.484 515.383 108.203C512.857 109.922 509.953 110.781 506.672 110.781C504.562 110.781 502.753 110.521 501.242 110C499.732 109.453 498.443 108.763 497.375 107.93C496.307 107.07 495.383 106.159 494.602 105.195H493.977C494.185 106.237 494.341 107.305 494.445 108.398C494.549 109.492 494.602 110.56 494.602 111.602V129.219H482.688V66.3281H492.375L494.055 71.9922H494.602C495.383 70.8203 496.333 69.7396 497.453 68.75C498.573 67.7604 499.914 66.9792 501.477 66.4062C503.065 65.8073 504.901 65.5078 506.984 65.5078ZM503.156 75.0391C501.073 75.0391 499.419 75.4688 498.195 76.3281C496.971 77.1875 496.073 78.4766 495.5 80.1953C494.953 81.9141 494.654 84.0885 494.602 86.7188V88.0078C494.602 90.8203 494.862 93.2031 495.383 95.1562C495.93 97.1094 496.828 98.5938 498.078 99.6094C499.354 100.625 501.099 101.133 503.312 101.133C505.135 101.133 506.633 100.625 507.805 99.6094C508.977 98.5938 509.849 97.1094 510.422 95.1562C511.021 93.1771 511.32 90.7682 511.32 87.9297C511.32 83.6589 510.656 80.4427 509.328 78.2812C508 76.1198 505.943 75.0391 503.156 75.0391ZM527.062 66.3281H540.109L548.352 90.8984C548.612 91.6797 548.833 92.474 549.016 93.2812C549.198 94.0885 549.354 94.9219 549.484 95.7812C549.615 96.6406 549.719 97.5391 549.797 98.4766H550.031C550.188 97.0703 550.396 95.7552 550.656 94.5312C550.943 93.3073 551.294 92.0964 551.711 90.8984L559.797 66.3281H572.57L554.094 115.586C552.974 118.607 551.516 121.12 549.719 123.125C547.922 125.156 545.852 126.68 543.508 127.695C541.19 128.711 538.638 129.219 535.852 129.219C534.497 129.219 533.326 129.141 532.336 128.984C531.346 128.854 530.5 128.711 529.797 128.555V119.102C530.344 119.232 531.034 119.349 531.867 119.453C532.701 119.557 533.573 119.609 534.484 119.609C536.151 119.609 537.583 119.258 538.781 118.555C539.979 117.852 540.982 116.901 541.789 115.703C542.596 114.531 543.234 113.242 543.703 111.836L544.406 109.688L527.062 66.3281Z" fill="#111111"/>
<path d="M58.6801 146.25H55.6205L52.8749 159.977V160.125H55.9063L58.6801 146.25Z" fill="#A7A5AC"/>
<path d="M64.3796 146.25H61.3199L64.0937 160.125H67.1547L64.3796 146.25Z" fill="#A7A5AC"/>
<path d="M70.5073 147C71.5418 147 72.5287 146.575 73.2372 145.822C90.9047 127.035 120 91.3436 120 60.0001C120 26.8626 93.1371 0 60 0C26.8629 0 0 26.8626 0 60.0001C0 91.3432 29.0953 127.035 46.7624 145.822C47.4713 146.575 48.4579 147 49.4924 147H70.5073V147Z" fill="#FFE682"/>
<path d="M23.0071 117H96.993C99.725 113.137 102.37 109.118 104.84 105H15.1601C17.6304 109.118 20.2751 113.137 23.0071 117V117Z" fill="#FFC850"/>
<path d="M0 60.0001C0 62.9669 0.263379 65.9732 0.750374 69.0002H119.249C119.736 65.9732 120 62.9673 120 60.0001C120 52.6007 118.596 45.5445 116.147 39.0001H3.85314C1.40355 45.5445 0 52.6003 0 60.0001V60.0001Z" fill="#FFC850"/>
<path d="M65.9999 174H54.0001C52.3433 174 50.9999 172.657 50.9999 171V162C50.9999 160.343 52.3433 159 54.0001 159H65.9999C67.6567 159 69.0001 160.343 69.0001 162V171C69.0001 172.657 67.6567 174 65.9999 174V174Z" fill="#FF9164"/>
<path d="M69.6985 147C83.7201 128.559 108 92.0117 108 60.0001C108 26.8626 86.5098 0 60 0C33.4902 0 12.0002 26.8626 12.0002 60.0001C12.0002 92.0117 36.28 128.559 50.3016 147H69.6985V147Z" fill="#96E178"/>
<path d="M91.2558 114H28.7443C31.025 118.183 33.3985 122.194 35.7781 126H84.2217C86.6016 122.194 88.9751 118.183 91.2558 114Z" fill="#8CCD73"/>
<path d="M103.156 87C106.117 77.9697 108 68.8156 108 60.0001C108 58.9873 107.919 58.0004 107.879 56.9999H12.1212C12.0815 58.0004 12.0002 58.987 12.0002 60.0001C12.0002 68.8156 13.8826 77.9697 16.844 87H103.156Z" fill="#8CCD73"/>
<path d="M66.6678 147C76.3074 128.559 92.9998 92.0117 92.9998 60.0001C92.9998 26.8626 78.2255 0 60 0C41.7746 0 27.0002 26.8626 27.0002 60.0001C27.0002 92.0117 43.6927 128.559 53.3323 147H66.6678V147Z" fill="#FFC850"/>
<path d="M84.6448 105H35.3553C36.7157 109.122 38.1672 113.134 39.6713 117H80.3288C81.8333 113.133 83.2841 109.122 84.6448 105Z" fill="#FFAA50"/>
<path d="M27.0002 60.0001C27.0002 62.9649 27.1858 65.9756 27.4533 69.0002H92.5468C92.8143 65.9759 92.9998 62.9649 92.9998 60.0001C92.9998 52.6007 92.2277 45.5445 90.8806 39.0001H29.1192C27.7724 45.5445 27.0002 52.6003 27.0002 60.0001V60.0001Z" fill="#FFAA50"/>
<path d="M62.4248 147C65.9303 128.559 71.9999 92.0117 71.9999 60.0001C71.9999 26.8626 66.6273 0 60 0C53.3727 0 48.0001 26.8626 48.0001 60.0001C48.0001 92.0117 54.0697 128.559 57.5752 147H62.4248V147Z" fill="#FF6464"/>
<path d="M48.0001 60.0001C48.0001 65.8934 48.2088 71.9409 48.566 78.0003H71.4337C71.7915 71.9409 71.9995 65.8934 71.9995 60.0001C71.9995 55.8901 71.9159 51.8779 71.7582 48.0002H48.2401C48.0837 51.8779 48.0001 55.8901 48.0001 60.0001V60.0001Z" fill="#D2555A"/>
<path d="M53.4856 123H66.5145C67.0943 119.173 67.6642 115.159 68.2089 111H51.7908C52.3359 115.159 52.9058 119.173 53.4856 123V123Z" fill="#D2555A"/>
</svg>
