<svg width="24" height="23" viewBox="0 0 24 23" fill="none" xmlns="http://www.w3.org/2000/svg">
<path d="M23.5935 11.063L20.7885 10.1589C18.9943 9.56689 17.9432 8.11504 17.4499 6.29067L16.2155 0.277885C16.1833 0.159079 16.1047 0 15.8631 0C15.6597 0 15.5429 0.159079 15.5107 0.277885L14.2763 6.29268C13.781 8.11705 12.7319 9.5689 10.9377 10.1609L8.13266 11.065C7.73597 11.1939 7.72993 11.7537 8.12461 11.8886L10.9498 12.8612C12.7379 13.4553 13.781 14.9051 14.2763 16.7214L15.5127 22.6677C15.5449 22.7866 15.6114 23 15.8651 23C16.1329 23 16.1853 22.7866 16.2175 22.6677L17.4539 16.7214C17.9492 14.9031 18.9923 13.4532 20.7804 12.8612L23.6056 11.8886C23.9963 11.7517 23.9902 11.1919 23.5935 11.063Z" fill="#FDD835"/>
<path d="M23.8593 11.3148C23.815 11.204 23.7284 11.1073 23.5935 11.063L20.7885 10.1589C18.9943 9.5669 17.9432 8.11505 17.4499 6.29068L16.2155 0.277897C16.1974 0.209432 16.1329 0.0845857 16.0584 0.0483398L16.4571 6.08327C16.7531 8.83796 17.0069 10.1348 19.2058 10.5133C21.0946 10.8395 23.2794 11.2141 23.8593 11.3148Z" fill="#FFEE58"/>
<path d="M23.8654 11.6289L19.0004 12.7444C17.2868 13.1794 16.3423 14.1721 16.3423 16.7697L15.8651 23C16.0282 22.9839 16.1611 22.8953 16.2175 22.6677L17.4539 16.7214C17.9492 14.9031 18.9923 13.4533 20.7805 12.8612L23.6056 11.8886C23.7385 11.8403 23.8231 11.7416 23.8654 11.6289Z" fill="#F4B400"/>
<path d="M7.52858 16.2945C5.8512 15.7408 5.69816 15.1165 5.41625 14.0634L4.71348 11.5987C4.6712 11.4396 4.25638 11.4396 4.21208 11.5987L3.73484 13.8761C3.45092 14.9252 2.84682 15.7589 1.81583 16.0992L0.172685 16.812C-0.0548588 16.8865 -0.0588861 17.2087 0.168657 17.2852L1.82388 17.8712C2.85085 18.2115 3.45092 19.0452 3.73686 20.0903L4.2141 22.2691C4.2584 22.4281 4.6712 22.4281 4.71348 22.2691L5.27328 20.1003C5.55721 19.0492 5.99216 18.2135 7.38762 17.8712L8.94216 17.2852C9.16971 17.2067 9.16769 16.8845 8.93814 16.81L7.52858 16.2945Z" fill="#FDD835"/>
<path d="M4.84639 14.0272C5.01755 15.6099 5.10414 16.0489 6.38684 16.3771L9.05896 16.8986C9.03077 16.8604 8.9905 16.8282 8.93613 16.8121L7.52657 16.2945C6.05459 15.7911 5.64783 15.1508 5.37196 13.8701C5.09609 12.5894 4.80209 11.7537 4.80209 11.7537C4.6994 11.4779 4.5524 11.492 4.5524 11.492L4.84639 14.0272Z" fill="#FFEE58"/>
<path d="M4.89471 19.5526C4.89471 18.0605 5.71024 17.3215 7.00704 17.3215L9.02472 17.239C9.02472 17.239 8.90793 17.394 8.70455 17.4423L7.38762 17.8712C6.27004 18.3203 5.76058 18.5458 5.41423 20.0742C5.41423 20.0742 4.9672 21.8522 4.88263 22.0395C4.76583 22.3013 4.62689 22.3557 4.62689 22.3557L4.89471 19.5526Z" fill="#F4B400"/>
<path d="M11.1391 4.48041C11.2518 4.44215 11.2478 4.28106 11.133 4.24884L9.57848 3.83C9.25227 3.7414 8.99855 3.48969 8.90592 3.16549L8.29376 0.638353C8.26356 0.51552 8.08837 0.51552 8.05817 0.640367L7.48226 3.15744C7.39366 3.49171 7.13188 3.74945 6.79762 3.83604L5.25314 4.23676C5.13836 4.26696 5.13031 4.42806 5.24307 4.46833L6.87212 5.03215C7.1641 5.13284 7.38963 5.37045 7.47823 5.66646L8.06018 8.00029C8.09039 8.1211 8.26356 8.12312 8.29376 8.00029L8.89585 5.6584C8.98646 5.36239 9.21401 5.1268 9.508 5.02813L11.1391 4.48041Z" fill="#F4B400" stroke="#F4B400" stroke-width="0.65893" stroke-miterlimit="10"/>
</svg>
