<svg width="512" height="512" xmlns="http://www.w3.org/2000/svg" xml:space="preserve" version="1.1"><rect id="backgroundrect" width="100%" height="100%" x="0" y="0" fill="none" stroke="none" style="" class=""/>

 <g style="" class="currentLayer">
  <title>Layer 1</title>
  <g id="svg_1" class="">
   <polygon id="svg_2" fill="#A7A5AC" points="252.16200184822083,430.34498167037964 243.15901112556458,430.34498167037964 235.08000111579895,470.73697996139526 235.08000111579895,471.171977519989 244.00001454353333,471.171977519989 "/>
   <polygon id="svg_3" fill="#A7A5AC" points="268.9329979419708,430.34498167037964 259.9300072193146,430.34498167037964 268.0919945240021,471.171977519989 277.0990135669708,471.171977519989 "/>
  </g>
  <path id="svg_4" fill="#FFE682" d="m286.9640127365875,432.5520002384186 c3.044,0 5.948,-1.25 8.033,-3.468 c51.987,-55.281 137.601,-160.303 137.601,-252.532 c0,-97.508 -79.045,-176.552 -176.552,-176.552 s-176.552,79.044 -176.552,176.552 c0,92.228 85.614,197.251 137.6,252.532 c2.086,2.218 4.989,3.468 8.033,3.468 l61.837,0 z" class=""/>
  <g id="svg_5" class="">
   <path id="svg_6" fill="#FFC850" d="m147.19301273658752,344.2760002384186 l217.706,0 c8.039,-11.368 15.821,-23.192 23.09,-35.31 l-263.886,0 c7.269,12.118 15.051,23.942 23.09,35.31 z"/>
   <path id="svg_7" fill="#FFC850" d="m79.49401273658752,176.55200023841857 c0,8.73 0.775,17.576 2.208,26.483 l348.687,0 c1.433,-8.907 2.208,-17.752 2.208,-26.483 c0,-21.773 -4.13,-42.536 -11.338000000000001,-61.793 l-330.427,0 c-7.208,19.257 -11.338000000000001,40.019 -11.338000000000001,61.793 z"/>
  </g>
  <path id="svg_8" fill="#FF9164" d="m273.70101273658753,512.0000002384186 l-35.31,0 c-4.875,0 -8.828,-3.9530000000000003 -8.828,-8.828 l0,-26.482 c0,-4.875 3.9530000000000003,-8.828 8.828,-8.828 l35.31,0 c4.875,0 8.828,3.9530000000000003 8.828,8.828 l0,26.483 c0,4.8740000000000006 -3.9530000000000003,8.827 -8.828,8.827 z" class=""/>
  <path id="svg_9" fill="#96E178" d="m284.5840127365875,432.5520002384186 c41.259,-54.264 112.703,-161.805 112.703,-256 c0,-97.508 -63.235,-176.552 -141.241,-176.552 s-141.241,79.044 -141.241,176.552 c0,94.195 71.444,201.736 112.703,256 l57.076,0 z" class=""/>
  <g id="svg_10" class="">
   <path id="svg_11" fill="#8CCD73" d="m348.0170127365875,335.44800023841856 l-183.942,0 c6.711,12.31 13.695,24.11 20.697,35.31 l142.547,0 c7.003,-11.199 13.987,-23 20.698,-35.31 z"/>
   <path id="svg_12" fill="#8CCD73" d="m383.0340127365875,256.0000002384186 c8.714,-26.572 14.253,-53.508 14.253,-79.448 c0,-2.98 -0.23900000000000007,-5.884 -0.35600000000000015,-8.828 l-281.77,0 c-0.11700000000000005,2.944 -0.35600000000000015,5.847 -0.35600000000000015,8.828 c0,25.94 5.539,52.876 14.253,79.448 l253.976,0 z"/>
  </g>
  <path id="svg_13" fill="#FFC850" d="m275.6660127365875,432.5520002384186 c28.365,-54.264 77.483,-161.805 77.483,-256 c0,-97.508 -43.474,-176.552 -97.103,-176.552 s-97.103,79.044 -97.103,176.552 c0,94.195 49.118,201.736 77.483,256 l39.24,0 z" class=""/>
  <g id="svg_14" class="">
   <path id="svg_15" fill="#FFAA50" d="m328.56401273658753,308.9660002384186 l-145.036,0 c4.003,12.13 8.274000000000001,23.933 12.7,35.31 l119.636,0 c4.427,-11.378 8.696,-23.18 12.7,-35.31 z"/>
   <path id="svg_16" fill="#FFAA50" d="m158.94301273658752,176.55200023841857 c0,8.724 0.546,17.583 1.3330000000000002,26.483 l191.54,0 c0.787,-8.899000000000001 1.3330000000000002,-17.759 1.3330000000000002,-26.483 c0,-21.773 -2.2720000000000002,-42.536 -6.236,-61.793 l-181.735,0 c-3.963,19.257 -6.235,40.019 -6.235,61.793 z"/>
  </g>
  <path id="svg_17" fill="#FF6464" d="m263.1810127365875,432.5520002384186 c10.315,-54.264 28.175,-161.805 28.175,-256 c0,-97.508 -15.809,-176.552 -35.31,-176.552 s-35.31,79.044 -35.31,176.552 c0,94.195 17.86,201.736 28.175,256 l14.27,0 z" class=""/>
  <g id="svg_18" class="">
   <path id="svg_19" fill="#D2555A" d="m220.73601273658753,176.55200023841857 c0,17.341 0.6140000000000003,35.136 1.665,52.966 l67.289,0 c1.053,-17.83 1.665,-35.625 1.665,-52.966 c0,-12.094 -0.24600000000000008,-23.9 -0.7100000000000003,-35.31 l-69.203,0 c-0.46,11.41 -0.7060000000000003,23.216 -0.7060000000000003,35.31 z"/>
   <path id="svg_20" fill="#D2555A" d="m236.87701273658752,361.93100023841856 l38.338,0 c1.706,-11.262 3.383,-23.073 4.986,-35.31 l-48.311,0 c1.604,12.237 3.281,24.048 4.987,35.31 z"/>
  </g>
  <g id="svg_21" class=""/>
  <g id="svg_22" class=""/>
  <g id="svg_23" class=""/>
  <g id="svg_24" class=""/>
  <g id="svg_25" class=""/>
  <g id="svg_26" class=""/>
  <g id="svg_27" class=""/>
  <g id="svg_28" class=""/>
  <g id="svg_29" class=""/>
  <g id="svg_30" class=""/>
  <g id="svg_31" class=""/>
  <g id="svg_32" class=""/>
  <g id="svg_33" class=""/>
  <g id="svg_34" class=""/>
  <g id="svg_35" class=""/>
 </g>
</svg>