<?xml version="1.0" standalone="no"?>
<!DOCTYPE svg PUBLIC "-//W3C//DTD SVG 20010904//EN"
 "http://www.w3.org/TR/2001/REC-SVG-20010904/DTD/svg10.dtd">
<svg version="1.0" xmlns="http://www.w3.org/2000/svg"
 width="512.000000pt" height="512.000000pt" viewBox="0 0 512.000000 512.000000"
 preserveAspectRatio="xMidYMid meet">
<metadata>
Created by potrace 1.14, written by Peter Selinger 2001-2017
</metadata>
<g transform="translate(0.000000,512.000000) scale(0.100000,-0.100000)"
fill="#000000" stroke="none">
<path d="M2408 5115 c-2 -2 -30 -6 -63 -9 -291 -33 -624 -171 -865 -359 -94
-74 -246 -228 -321 -327 -56 -74 -159 -232 -159 -245 0 -2 -17 -39 -38 -82
-159 -326 -205 -720 -127 -1086 25 -114 66 -259 91 -314 8 -17 14 -35 14 -39
0 -17 76 -193 136 -314 199 -405 488 -820 893 -1285 148 -170 221 -243 250
-253 14 -4 67 -10 116 -11 50 -2 91 -3 91 -4 1 -1 -14 -82 -34 -179 -28 -137
-40 -179 -53 -183 -32 -10 -41 -59 -41 -216 1 -150 1 -153 27 -178 l25 -26
215 0 c280 0 260 -17 260 216 l0 171 -30 25 c-16 14 -30 31 -31 37 -1 6 -9 47
-18 91 -9 44 -18 91 -21 105 -3 14 -10 49 -16 78 -6 30 -9 55 -7 57 1 2 46 4
98 6 61 1 104 7 120 17 26 15 68 57 179 181 36 41 71 79 76 85 6 6 33 38 60
71 28 33 52 62 55 65 3 3 24 27 45 55 22 27 48 59 58 70 77 84 487 664 487
688 0 3 21 41 46 84 171 288 331 687 369 923 6 40 13 73 21 110 13 57 12 338
-1 439 -43 308 -147 564 -335 826 -109 151 -301 329 -472 439 -96 61 -284 154
-343 170 -5 2 -17 6 -25 9 -77 30 -221 63 -355 81 -83 12 -367 20 -377 11z
m206 -4357 c3 -18 8 -42 10 -53 5 -28 46 -226 50 -247 3 -15 -9 -17 -110 -17
-63 0 -114 3 -114 7 0 4 5 25 10 47 5 22 11 51 13 65 45 244 40 230 92 230 40
0 43 -2 49 -32z"/>
</g>
</svg>
